<svg width="80" height="80" viewBox="0 0 80 80" fill="none" xmlns="http://www.w3.org/2000/svg">
<circle cx="40" cy="40" r="30" fill="#FCD53F"/>
<path d="M55 40.8333V34.1666C55 33.2825 54.6488 32.4347 54.0237 31.8096C53.3986 31.1844 52.5507 30.8333 51.6667 30.8333H41.7833C41.2347 30.8333 40.6945 30.698 40.2107 30.4392C39.7269 30.1805 39.3145 29.8063 39.01 29.3499L37.6567 27.3166C37.3522 26.8602 36.9397 26.486 36.4559 26.2273C35.9722 25.9685 35.432 25.8332 34.8833 25.8333H28.3333C27.4493 25.8333 26.6014 26.1844 25.9763 26.8096C25.3512 27.4347 25 28.2825 25 29.1666V49.1666C25 50.0506 25.3512 50.8985 25.9763 51.5236C26.6014 52.1487 27.4493 52.4999 28.3333 52.4999H40M50 44.1666V49.1666M50 49.1666V54.1666M50 49.1666H45M50 49.1666H55" stroke="white" stroke-width="3" stroke-linecap="round" stroke-linejoin="round"/>
</svg>
