<svg width="80" height="80" viewBox="0 0 80 80" fill="none" xmlns="http://www.w3.org/2000/svg">
<circle cx="40" cy="40" r="30" fill="#FCD53F"/>
<path d="M51.6667 46.6667V51.6667M51.6667 51.6667V56.6667M51.6667 51.6667H56.6667M51.6667 51.6667H46.6667M53.3334 35V34.7133C53.3332 33.8294 52.9819 32.9816 52.3567 32.3567L45.9767 25.9767C45.3518 25.3515 44.5041 25.0002 43.6201 25H43.3334M53.3334 35H46.6667C45.7827 35 44.9348 34.6488 44.3097 34.0237C43.6846 33.3986 43.3334 32.5507 43.3334 31.6667V25M53.3334 35V40M43.3334 25H30.0001C29.116 25 28.2682 25.3512 27.6431 25.9763C27.0179 26.6014 26.6667 27.4493 26.6667 28.3333V51.6667C26.6667 52.5507 27.0179 53.3986 27.6431 54.0237C28.2682 54.6488 29.116 55 30.0001 55H40.0001" stroke="white" stroke-width="3" stroke-linecap="round" stroke-linejoin="round"/>
</svg>
